<?xml version="1.0" encoding="UTF-8"?>
<svg id="Layer_1" data-name="Layer 1" xmlns="http://www.w3.org/2000/svg" viewBox="0 0 841.89 595.28">
  <defs>
    <style>
      .cls-1 {
        fill: #226432;
      }

      .cls-2 {
        fill: #fff;
      }

      .cls-3 {
        font-size: 92.08px;
        letter-spacing: .01em;
      }

      .cls-4 {
        letter-spacing: .01em;
      }

      .cls-4, .cls-5 {
        font-size: 105.4px;
      }

      .cls-6 {
        fill: #7bc24b;
      }

      .cls-7 {
        fill: #808285;
        font-family: TimesNewRomanPSMT, 'Times New Roman';
      }

      .cls-5 {
        letter-spacing: 0em;
      }
    </style>
  </defs>
  <g>
    <path class="cls-6" d="m152.98,527.69c4.11-202.44,63.55-460.17,63.55-460.17,53.2,120.24,99.71,249.49,90.04,315.63-14,95.82-62.47,146.13-153.59,144.53Z"/>
    <path class="cls-1" d="m216.53,67.53s-59.44,257.72-63.55,460.17c-.3.02-.61.06-.91.06-96.05.21-131.46-87.62-126.74-153.46C35.3,234.91,216.53,67.53,216.53,67.53Z"/>
    <g>
      <path class="cls-2" d="m140.99,351.38l-.13,6.61-18.43-9.62c-.79-42.22-68.18-70.57-68.18-70.57,0,0,83.31-6.23,71.97,64l14.78,9.59Z"/>
      <path class="cls-2" d="m233.73,238.87c-75.11,0-92.67,68.45-92.67,93.55v145.2c0,15.31-7.54,29.92-20.74,38.76-3.95,2.64-8.26,5.4-12.09,5.68-.21.02,19.29,6.34,46.51,6.41,29.05.08,48.97-5.63,52.01-6.39.16-.04.2-.24.06-.33-3.01-1.99-24.86-17.18-24.86-37.87v-124.73c0-.1.09-.19.2-.19h46.83c2.62,0,4.75-2.01,4.75-4.5v-9c0-2.52-2.16-4.55-4.82-4.54l-46.76.22c-.11,0-.2-.08-.2-.18.02-3.95.82-70.58,27.64-81.2,15.2-6.02,47.64-5.1,53.84,5.65,1.75,3.03,1.22,7.88-.76,10.77-1.6,2.34-3.23,6.31-2.8,8.51,1.64,8.28,10.54,11.45,18.73,11.18,15.48-.52,17.47-11.51,17.47-11.51,0,0-.03-45.5-62.35-45.5Z"/>
    </g>
    <path class="cls-6" d="m125.38,348.27s-34.8,1.01-44.51-19.2c-9.73-20.21-2.07-26.04-26.63-51.28,1.04.45,70.39,28.26,71.14,70.48Z"/>
  </g>
  <g>
    <text class="cls-7" transform="translate(333.59 235.85)"><tspan class="cls-5" x="0" y="0">F</tspan><tspan class="cls-3" x="59.67" y="0">OUNDER</tspan></text>
    <text class="cls-7" transform="translate(333.59 344.51)"><tspan class="cls-4" x="0" y="0">I</tspan><tspan class="cls-3" x="36.15" y="0">NSTITUTE</tspan></text>
    <text class="cls-7" transform="translate(333.59 453.57)"><tspan class="cls-4" x="0" y="0">V</tspan><tspan class="cls-3" x="77.17" y="0">IETNAM</tspan></text>
  </g>
</svg>